            <svg width="704" height="78" viewBox="0 0 704 78" fill="none" xmlns="http://www.w3.org/2000/svg">
            <path d="M250 44.75C249.506 44.75 249.022 44.64 248.611 44.434C248.2 44.228 247.88 43.9351 247.69 43.5925C247.501 43.2499 247.452 42.8729 247.548 42.5092C247.645 42.1455 247.883 41.8114 248.232 41.5492C248.582 41.287 249.027 41.1084 249.512 41.036C249.997 40.9637 250.5 41.0008 250.957 41.1427C251.414 41.2846 251.804 41.525 252.079 41.8333C252.353 42.1416 252.5 42.5042 252.5 42.875C252.499 43.3721 252.236 43.8487 251.767 44.2002C251.298 44.5517 250.663 44.7494 250 44.75ZM250 41.75C249.703 41.75 249.413 41.816 249.167 41.9396C248.92 42.0632 248.728 42.2389 248.614 42.4445C248.501 42.65 248.471 42.8762 248.529 43.0945C248.587 43.3127 248.73 43.5132 248.939 43.6705C249.149 43.8278 249.416 43.935 249.707 43.9784C249.998 44.0218 250.3 43.9995 250.574 43.9144C250.848 43.8292 251.082 43.685 251.247 43.5C251.412 43.315 251.5 43.0975 251.5 42.875C251.5 42.5767 251.341 42.2907 251.06 42.0798C250.779 41.8689 250.398 41.7503 250 41.75Z" fill="#A7A7A7"/>
            <path d="M250 49.25L245.782 45.5191C245.723 45.4631 245.665 45.4067 245.608 45.35C244.887 44.6382 244.498 43.7687 244.5 42.875C244.5 41.781 245.079 40.7318 246.111 39.9582C247.142 39.1846 248.541 38.75 250 38.75C251.459 38.75 252.858 39.1846 253.889 39.9582C254.921 40.7318 255.5 41.781 255.5 42.875C255.502 43.7683 255.113 44.6374 254.393 45.3489L254.392 45.35C254.392 45.35 254.242 45.4978 254.22 45.5176L250 49.25ZM246.406 44.8981C246.407 44.8981 246.523 45.0136 246.55 45.0384L250 48.0905L253.455 45.0342C253.477 45.0136 253.594 44.8974 253.595 44.897C254.183 44.3154 254.501 43.6051 254.5 42.875C254.5 41.9799 254.026 41.1214 253.182 40.4885C252.338 39.8556 251.193 39.5 250 39.5C248.807 39.5 247.662 39.8556 246.818 40.4885C245.974 41.1214 245.5 41.9799 245.5 42.875C245.499 43.6056 245.817 44.3163 246.407 44.8981H246.406Z" fill="#A7A7A7"/>
            <path d="M3.33331 39.5V48.5H7.33331V46.75H8.66665V48.5H12.6666V39.5H3.33331ZM4.66665 40.5H5.99998V41.5H4.66665V40.5ZM7.33331 40.5H8.66665V41.5H7.33331V40.5ZM9.99998 40.5H11.3333V41.5H9.99998V40.5ZM4.66665 42.5H5.99998V43.5H4.66665V42.5ZM7.33331 42.5H8.66665V43.5H7.33331V42.5ZM9.99998 42.5H11.3333V43.5H9.99998V42.5ZM4.66665 44.5H5.99998V45.5H4.66665V44.5ZM7.33331 44.5H8.66665V45.5H7.33331V44.5ZM9.99998 44.5H11.3333V45.5H9.99998V44.5ZM4.66665 46.5H5.99998V47.5H4.66665V46.5ZM9.99998 46.5H11.3333V47.5H9.99998V46.5Z" fill="#A7A7A7"/>
            <rect x="612" width="84" height="24" rx="12" fill="#D7FFE0"/>
            <path d="M631.848 15H633.108V8.718H631.848V15ZM637.844 15H639.104V12.075C639.104 10.698 638.276 9.942 637.115 9.942C636.476 9.942 635.936 10.212 635.612 10.635V10.014H634.352V15H635.612V12.246C635.612 11.445 636.053 11.013 636.737 11.013C637.403 11.013 637.844 11.445 637.844 12.246V15ZM640.501 13.452C640.501 14.595 641.14 15 642.094 15H642.886V13.938H642.301C641.905 13.938 641.77 13.794 641.77 13.461V11.049H642.886V10.014H641.77V8.781H640.501V10.014H639.907V11.049H640.501V13.452ZM645.934 10.968C646.582 10.968 647.104 11.382 647.122 12.039H644.755C644.854 11.355 645.331 10.968 645.934 10.968ZM648.301 13.434H646.942C646.78 13.767 646.483 14.037 645.943 14.037C645.313 14.037 644.809 13.623 644.746 12.885H648.391C648.418 12.723 648.427 12.561 648.427 12.399C648.427 10.914 647.41 9.933 645.97 9.933C644.494 9.933 643.468 10.932 643.468 12.507C643.468 14.073 644.521 15.081 645.97 15.081C647.203 15.081 648.031 14.352 648.301 13.434ZM650.607 12.516C650.607 11.553 651.057 11.265 651.804 11.265H652.137V9.942C651.444 9.942 650.922 10.275 650.607 10.788V10.014H649.347V15H650.607V12.516ZM656.477 15H657.737V12.075C657.737 10.698 656.909 9.942 655.748 9.942C655.109 9.942 654.569 10.212 654.245 10.635V10.014H652.985V15H654.245V12.246C654.245 11.445 654.686 11.013 655.37 11.013C656.036 11.013 656.477 11.445 656.477 12.246V15ZM662.805 13.578C662.769 11.751 660.006 12.318 660.006 11.409C660.006 11.121 660.249 10.932 660.717 10.932C661.212 10.932 661.518 11.193 661.554 11.58H662.76C662.688 10.59 661.959 9.933 660.753 9.933C659.52 9.933 658.782 10.599 658.782 11.427C658.782 13.254 661.599 12.687 661.599 13.578C661.599 13.866 661.329 14.091 660.834 14.091C660.33 14.091 659.979 13.803 659.934 13.425H658.665C658.719 14.352 659.592 15.081 660.843 15.081C662.058 15.081 662.805 14.433 662.805 13.578ZM663.84 15H665.1V12.246C665.1 11.445 665.541 11.013 666.225 11.013C666.891 11.013 667.332 11.445 667.332 12.246V15H668.592V12.075C668.592 10.698 667.773 9.942 666.648 9.942C665.982 9.942 665.424 10.212 665.1 10.635V8.34H663.84V15ZM669.79 15H671.05V10.014H669.79V15ZM670.429 9.42C670.87 9.42 671.203 9.096 671.203 8.682C671.203 8.268 670.87 7.944 670.429 7.944C669.979 7.944 669.655 8.268 669.655 8.682C669.655 9.096 669.979 9.42 670.429 9.42ZM673.555 10.734V10.014H672.295V17.376H673.555V14.289C673.861 14.694 674.419 15.081 675.202 15.081C676.48 15.081 677.479 14.046 677.479 12.489C677.479 10.932 676.48 9.933 675.202 9.933C674.428 9.933 673.852 10.311 673.555 10.734ZM676.192 12.489C676.192 13.434 675.553 13.974 674.869 13.974C674.194 13.974 673.555 13.452 673.555 12.507C673.555 11.562 674.194 11.04 674.869 11.04C675.553 11.04 676.192 11.544 676.192 12.489Z" fill="#018C0F"/>
            <g clip-path="url(#clip0_22_160)">
            <path d="M544.333 45.5C544.156 45.5 543.987 45.4473 543.862 45.3536C543.737 45.2598 543.667 45.1326 543.667 45C543.667 44.8674 543.737 44.7402 543.862 44.6464C543.987 44.5527 544.156 44.5 544.333 44.5C544.51 44.5 544.68 44.5527 544.805 44.6464C544.93 44.7402 545 44.8674 545 45C545 45.1326 544.93 45.2598 544.805 45.3536C544.68 45.4473 544.51 45.5 544.333 45.5ZM544.333 47.5C544.156 47.5 543.987 47.4473 543.862 47.3536C543.737 47.2598 543.667 47.1326 543.667 47C543.667 46.8674 543.737 46.7402 543.862 46.6464C543.987 46.5527 544.156 46.5 544.333 46.5C544.51 46.5 544.68 46.5527 544.805 46.6464C544.93 46.7402 545 46.8674 545 47C545 47.1326 544.93 47.2598 544.805 47.3536C544.68 47.4473 544.51 47.5 544.333 47.5ZM546.333 47C546.333 47.1326 546.404 47.2598 546.529 47.3536C546.654 47.4473 546.823 47.5 547 47.5C547.177 47.5 547.346 47.4473 547.471 47.3536C547.596 47.2598 547.667 47.1326 547.667 47C547.667 46.8674 547.596 46.7402 547.471 46.6464C547.346 46.5527 547.177 46.5 547 46.5C546.823 46.5 546.654 46.5527 546.529 46.6464C546.404 46.7402 546.333 46.8674 546.333 47ZM549.667 47.5C549.49 47.5 549.32 47.4473 549.195 47.3536C549.07 47.2598 549 47.1326 549 47C549 46.8674 549.07 46.7402 549.195 46.6464C549.32 46.5527 549.49 46.5 549.667 46.5C549.843 46.5 550.013 46.5527 550.138 46.6464C550.263 46.7402 550.333 46.8674 550.333 47C550.333 47.1326 550.263 47.2598 550.138 47.3536C550.013 47.4473 549.843 47.5 549.667 47.5ZM546.333 45C546.333 45.1326 546.404 45.2598 546.529 45.3536C546.654 45.4473 546.823 45.5 547 45.5C547.177 45.5 547.346 45.4473 547.471 45.3536C547.596 45.2598 547.667 45.1326 547.667 45C547.667 44.8674 547.596 44.7402 547.471 44.6464C547.346 44.5527 547.177 44.5 547 44.5C546.823 44.5 546.654 44.5527 546.529 44.6464C546.404 44.7402 546.333 44.8674 546.333 45ZM549.667 45.5C549.49 45.5 549.32 45.4473 549.195 45.3536C549.07 45.2598 549 45.1326 549 45C549 44.8674 549.07 44.7402 549.195 44.6464C549.32 44.5527 549.49 44.5 549.667 44.5C549.843 44.5 550.013 44.5527 550.138 44.6464C550.263 44.7402 550.333 44.8674 550.333 45C550.333 45.1326 550.263 45.2598 550.138 45.3536C550.013 45.4473 549.843 45.5 549.667 45.5ZM544.333 42.5C544.156 42.5 543.987 42.5527 543.862 42.6464C543.737 42.7402 543.667 42.8674 543.667 43C543.667 43.1326 543.737 43.2598 543.862 43.3536C543.987 43.4473 544.156 43.5 544.333 43.5H549.667C549.843 43.5 550.013 43.4473 550.138 43.3536C550.263 43.2598 550.333 43.1326 550.333 43C550.333 42.8674 550.263 42.7402 550.138 42.6464C550.013 42.5527 549.843 42.5 549.667 42.5H544.333Z" fill="#A7A7A7"/>
            <path fill-rule="evenodd" clip-rule="evenodd" d="M543 40.5C542.47 40.5 541.961 40.658 541.586 40.9393C541.211 41.2206 541 41.6022 541 42V48C541 48.3978 541.211 48.7794 541.586 49.0607C541.961 49.342 542.47 49.5 543 49.5H551C551.53 49.5 552.039 49.342 552.414 49.0607C552.789 48.7794 553 48.3978 553 48V42C553 41.6022 552.789 41.2206 552.414 40.9393C552.039 40.658 551.53 40.5 551 40.5H543ZM551 41.5H543C542.823 41.5 542.654 41.5527 542.529 41.6464C542.404 41.7402 542.333 41.8674 542.333 42V48C542.333 48.1326 542.404 48.2598 542.529 48.3536C542.654 48.4473 542.823 48.5 543 48.5H551C551.177 48.5 551.346 48.4473 551.471 48.3536C551.596 48.2598 551.667 48.1326 551.667 48V42C551.667 41.8674 551.596 41.7402 551.471 41.6464C551.346 41.5527 551.177 41.5 551 41.5Z" fill="#A7A7A7"/>
            </g>
            <path d="M566.861 46.636C566.861 43.588 562.445 44.764 562.445 42.88C562.445 42.076 563.057 41.692 563.849 41.716C564.713 41.74 565.205 42.256 565.253 42.82H566.765C566.645 41.392 565.517 40.552 563.921 40.552C562.217 40.552 561.053 41.464 561.053 42.928C561.053 46 565.481 44.692 565.481 46.708C565.481 47.416 564.941 47.932 563.981 47.932C563.033 47.932 562.553 47.38 562.493 46.696H561.029C561.029 48.172 562.313 49.084 563.981 49.084C565.841 49.084 566.861 47.884 566.861 46.636ZM572.26 43.432C573.28 43.432 574.084 44.08 574.108 45.1H570.448C570.592 44.056 571.336 43.432 572.26 43.432ZM575.356 47.032H573.88C573.628 47.548 573.16 47.956 572.32 47.956C571.312 47.956 570.532 47.296 570.436 46.204H575.488C575.524 45.976 575.536 45.76 575.536 45.532C575.536 43.588 574.204 42.28 572.32 42.28C570.364 42.28 569.02 43.612 569.02 45.688C569.02 47.764 570.424 49.108 572.32 49.108C573.94 49.108 574.984 48.184 575.356 47.032ZM579.25 43.36V42.388H577.882V52.144H579.25V48.04C579.682 48.556 580.462 49.108 581.554 49.108C583.294 49.108 584.662 47.704 584.662 45.664C584.662 43.624 583.294 42.28 581.554 42.28C580.474 42.28 579.67 42.808 579.25 43.36ZM583.27 45.664C583.27 47.092 582.286 47.92 581.254 47.92C580.234 47.92 579.25 47.116 579.25 45.688C579.25 44.272 580.234 43.468 581.254 43.468C582.286 43.468 583.27 44.236 583.27 45.664ZM590.844 48.88H596.676V47.74H592.872C594.276 46.456 596.436 44.836 596.436 42.712C596.436 41.14 595.428 40.072 593.652 40.072C592.104 40.072 590.88 40.996 590.832 42.892H592.152C592.188 41.908 592.704 41.236 593.664 41.236C594.684 41.236 595.08 41.86 595.08 42.772C595.08 44.488 592.908 46.072 590.844 47.884V48.88ZM598.878 44.512C598.878 47.056 599.55 48.976 601.998 48.976C604.446 48.976 605.118 47.056 605.118 44.512C605.118 42.016 604.446 40.096 601.998 40.096C599.55 40.096 598.878 42.016 598.878 44.512ZM603.774 44.512C603.774 46.228 603.594 47.728 601.998 47.728C600.402 47.728 600.222 46.228 600.222 44.512C600.222 42.88 600.402 41.344 601.998 41.344C603.594 41.344 603.774 42.88 603.774 44.512ZM607.457 48.88H613.289V47.74H609.485C610.889 46.456 613.049 44.836 613.049 42.712C613.049 41.14 612.041 40.072 610.265 40.072C608.717 40.072 607.493 40.996 607.445 42.892H608.765C608.801 41.908 609.317 41.236 610.277 41.236C611.297 41.236 611.693 41.86 611.693 42.772C611.693 44.488 609.521 46.072 607.457 47.884V48.88ZM616.427 49H617.807V40.252H615.311V41.5H616.427V49ZM625.127 45.232H630.059V44.08H625.127V45.232ZM639.844 40.66H637.12V49H639.844C642.52 49 644.272 47.428 644.272 44.86C644.272 42.28 642.52 40.66 639.844 40.66ZM638.488 47.884V41.776H639.844C641.812 41.776 642.868 42.952 642.868 44.86C642.868 46.756 641.812 47.884 639.844 47.884H638.488ZM649.412 43.432C650.432 43.432 651.236 44.08 651.26 45.1H647.6C647.744 44.056 648.488 43.432 649.412 43.432ZM652.508 47.032H651.032C650.78 47.548 650.312 47.956 649.472 47.956C648.464 47.956 647.684 47.296 647.588 46.204H652.64C652.676 45.976 652.688 45.76 652.688 45.532C652.688 43.588 651.356 42.28 649.472 42.28C647.516 42.28 646.172 43.612 646.172 45.688C646.172 47.764 647.576 49.108 649.472 49.108C651.092 49.108 652.136 48.184 652.508 47.032ZM654.578 45.688C654.578 47.764 655.922 49.108 657.818 49.108C659.438 49.108 660.494 48.208 660.866 46.912H659.39C659.138 47.596 658.634 47.956 657.818 47.956C656.714 47.956 655.982 47.14 655.982 45.688C655.982 44.248 656.714 43.432 657.818 43.432C658.634 43.432 659.162 43.84 659.39 44.476H660.866C660.494 43.084 659.438 42.28 657.818 42.28C655.922 42.28 654.578 43.624 654.578 45.688ZM667.059 48.88H672.891V47.74H669.087C670.491 46.456 672.651 44.836 672.651 42.712C672.651 41.14 671.643 40.072 669.867 40.072C668.319 40.072 667.095 40.996 667.047 42.892H668.367C668.403 41.908 668.919 41.236 669.879 41.236C670.899 41.236 671.295 41.86 671.295 42.772C671.295 44.488 669.123 46.072 667.059 47.884V48.88ZM675.092 44.512C675.092 47.056 675.764 48.976 678.212 48.976C680.66 48.976 681.332 47.056 681.332 44.512C681.332 42.016 680.66 40.096 678.212 40.096C675.764 40.096 675.092 42.016 675.092 44.512ZM679.988 44.512C679.988 46.228 679.808 47.728 678.212 47.728C676.616 47.728 676.436 46.228 676.436 44.512C676.436 42.88 676.616 41.344 678.212 41.344C679.808 41.344 679.988 42.88 679.988 44.512ZM683.672 48.88H689.504V47.74H685.7C687.104 46.456 689.264 44.836 689.264 42.712C689.264 41.14 688.256 40.072 686.48 40.072C684.932 40.072 683.708 40.996 683.66 42.892H684.98C685.016 41.908 685.532 41.236 686.492 41.236C687.512 41.236 687.908 41.86 687.908 42.772C687.908 44.488 685.736 46.072 683.672 47.884V48.88ZM692.642 49H694.022V40.252H691.526V41.5H692.642V49Z" fill="#A7A7A7"/>
            <path d="M4.36 24.22L6.38 24.2L9.74 12.98L12.98 24.2H15.02L19.06 10.26H17.1L14.04 22.04L10.84 10.26H8.8L5.44 22.08L2.4 10.26H0.46L4.36 24.22ZM26.7117 14.6C28.5917 14.6 30.1917 15.78 30.1717 17.92H23.2517C23.4517 15.78 24.9317 14.6 26.7117 14.6ZM31.8317 20.82H29.8717C29.4717 22 28.4317 22.84 26.7917 22.84C24.9317 22.84 23.3717 21.62 23.2317 19.4H31.9917C32.0317 19.02 32.0517 18.7 32.0517 18.3C32.0517 15.3 29.9717 13.06 26.7917 13.06C23.5917 13.06 21.3717 15.24 21.3717 18.7C21.3717 22.18 23.6717 24.38 26.7917 24.38C29.5117 24.38 31.2717 22.82 31.8317 20.82ZM37.2741 15.28V9.39995H35.4541V24.2H37.2741V22.18C37.9541 23.38 39.3741 24.38 41.3741 24.38C44.3141 24.38 46.5741 22.08 46.5741 18.68C46.5741 15.26 44.3341 13.06 41.3741 13.06C39.4341 13.06 37.9741 14.06 37.2741 15.28ZM44.7141 18.68C44.7141 21.26 43.0141 22.78 40.9941 22.78C39.0141 22.78 37.2741 21.28 37.2741 18.7C37.2741 16.16 39.0141 14.64 40.9941 14.64C43.0141 14.64 44.7141 16.1 44.7141 18.68ZM60.6417 10.26H56.3017V24.2H60.6417C65.2217 24.2 68.0417 21.58 68.0417 17.26C68.0417 12.94 65.2217 10.26 60.6417 10.26ZM58.1217 22.7V11.74H60.6417C64.2817 11.74 66.1817 13.86 66.1817 17.26C66.1817 20.66 64.2817 22.7 60.6417 22.7H58.1217ZM76.1023 14.6C77.9823 14.6 79.5823 15.78 79.5623 17.92H72.6423C72.8423 15.78 74.3223 14.6 76.1023 14.6ZM81.2223 20.82H79.2623C78.8623 22 77.8223 22.84 76.1823 22.84C74.3223 22.84 72.7623 21.62 72.6223 19.4H81.3823C81.4223 19.02 81.4423 18.7 81.4423 18.3C81.4423 15.3 79.3623 13.06 76.1823 13.06C72.9823 13.06 70.7623 15.24 70.7623 18.7C70.7623 22.18 73.0623 24.38 76.1823 24.38C78.9023 24.38 80.6623 22.82 81.2223 20.82ZM83.5447 13.24L87.8447 24.2H89.9647L94.2647 13.24H92.3247L88.9247 22.52L85.5047 13.24H83.5447ZM101.716 14.6C103.596 14.6 105.196 15.78 105.176 17.92H98.2556C98.4556 15.78 99.9356 14.6 101.716 14.6ZM106.836 20.82H104.876C104.476 22 103.436 22.84 101.796 22.84C99.9356 22.84 98.3756 21.62 98.2356 19.4H106.996C107.036 19.02 107.056 18.7 107.056 18.3C107.056 15.3 104.976 13.06 101.796 13.06C98.5956 13.06 96.3756 15.24 96.3756 18.7C96.3756 22.18 98.6756 24.38 101.796 24.38C104.516 24.38 106.276 22.82 106.836 20.82ZM110.458 24.2H112.278V9.39995H110.458V24.2ZM126.78 18.7C126.78 15.24 124.36 13.06 121.24 13.06C118.14 13.06 115.7 15.24 115.7 18.7C115.7 22.18 118.06 24.38 121.16 24.38C124.28 24.38 126.78 22.18 126.78 18.7ZM117.56 18.7C117.56 15.94 119.3 14.64 121.22 14.64C123.1 14.64 124.92 15.94 124.92 18.7C124.92 21.48 123.06 22.78 121.16 22.78C119.26 22.78 117.56 21.48 117.56 18.7ZM131.993 15.26V13.24H130.173V29.4H131.993V22.18C132.673 23.3 134.093 24.38 136.093 24.38C139.033 24.38 141.293 22.08 141.293 18.68C141.293 15.26 139.033 13.06 136.093 13.06C134.093 13.06 132.653 14.1 131.993 15.26ZM139.433 18.68C139.433 21.26 137.733 22.78 135.713 22.78C133.733 22.78 131.993 21.28 131.993 18.7C131.993 16.16 133.733 14.64 135.713 14.64C137.733 14.64 139.433 16.1 139.433 18.68ZM160.508 24.2H162.308V17.74C162.308 14.6 160.368 13.04 157.868 13.04C156.188 13.04 154.628 13.9 153.988 15.48C153.268 13.84 151.768 13.04 149.968 13.04C148.528 13.04 147.228 13.66 146.508 14.82V13.24H144.688V24.2H146.508V18.16C146.508 15.8 147.768 14.62 149.608 14.62C151.408 14.62 152.608 15.76 152.608 18V24.2H154.408V18.16C154.408 15.8 155.668 14.62 157.508 14.62C159.308 14.62 160.508 15.76 160.508 18V24.2ZM170.954 14.6C172.834 14.6 174.434 15.78 174.414 17.92H167.494C167.694 15.78 169.174 14.6 170.954 14.6ZM176.074 20.82H174.114C173.714 22 172.674 22.84 171.034 22.84C169.174 22.84 167.614 21.62 167.474 19.4H176.234C176.274 19.02 176.294 18.7 176.294 18.3C176.294 15.3 174.214 13.06 171.034 13.06C167.834 13.06 165.614 15.24 165.614 18.7C165.614 22.18 167.914 24.38 171.034 24.38C173.754 24.38 175.514 22.82 176.074 20.82ZM187.716 24.2H189.516V17.74C189.516 14.6 187.576 13.04 185.036 13.04C183.556 13.04 182.236 13.66 181.516 14.8V13.24H179.696V24.2H181.516V18.14C181.516 15.78 182.796 14.62 184.656 14.62C186.496 14.62 187.716 15.76 187.716 18V24.2ZM193.889 21.2C193.889 23.4 194.989 24.2 196.929 24.2H198.569V22.66H197.229C196.109 22.66 195.709 22.28 195.709 21.2V14.74H198.569V13.24H195.709V10.48H193.889V13.24H192.469V14.74H193.889V21.2ZM208.106 24.2H209.926V10.26H208.106V24.2ZM222.048 24.2H223.848V17.74C223.848 14.6 221.908 13.04 219.368 13.04C217.888 13.04 216.568 13.66 215.848 14.8V13.24H214.028V24.2H215.848V18.14C215.848 15.78 217.128 14.62 218.988 14.62C220.828 14.62 222.048 15.76 222.048 18V24.2ZM228.221 21.2C228.221 23.4 229.321 24.2 231.261 24.2H232.901V22.66H231.561C230.441 22.66 230.041 22.28 230.041 21.2V14.74H232.901V13.24H230.041V10.48H228.221V13.24H226.801V14.74H228.221V21.2ZM240.766 14.6C242.646 14.6 244.246 15.78 244.226 17.92H237.306C237.506 15.78 238.986 14.6 240.766 14.6ZM245.886 20.82H243.926C243.526 22 242.486 22.84 240.846 22.84C238.986 22.84 237.426 21.62 237.286 19.4H246.046C246.086 19.02 246.106 18.7 246.106 18.3C246.106 15.3 244.026 13.06 240.846 13.06C237.646 13.06 235.426 15.24 235.426 18.7C235.426 22.18 237.726 24.38 240.846 24.38C243.566 24.38 245.326 22.82 245.886 20.82ZM251.329 18.24C251.329 15.7 252.649 14.92 254.389 14.92H254.869V13.04C253.129 13.04 251.949 13.8 251.329 15.02V13.24H249.509V24.2H251.329V18.24ZM265.99 24.2H267.79V17.74C267.79 14.6 265.85 13.04 263.31 13.04C261.83 13.04 260.51 13.66 259.79 14.8V13.24H257.97V24.2H259.79V18.14C259.79 15.78 261.07 14.62 262.93 14.62C264.77 14.62 265.99 15.76 265.99 18V24.2Z" fill="#666666"/>
            <path d="M20.9 48H22.268V39.66H20.9V48ZM31.3641 44.688C31.3641 42.612 29.8761 41.28 27.9921 41.28C26.1081 41.28 24.6201 42.612 24.6201 44.688C24.6201 46.764 26.0481 48.108 27.9321 48.108C29.8281 48.108 31.3641 46.764 31.3641 44.688ZM26.0121 44.688C26.0121 43.188 26.9361 42.468 27.9681 42.468C28.9881 42.468 29.9601 43.188 29.9601 44.688C29.9601 46.188 28.9521 46.92 27.9321 46.92C26.9001 46.92 26.0121 46.188 26.0121 44.688ZM38.4084 48H39.7644V44.1C39.7644 42.252 38.6004 41.28 37.0524 41.28C36.2604 41.28 35.5284 41.604 35.0844 42.144V41.388H33.7164V48H35.0844V44.304C35.0844 43.092 35.7444 42.468 36.7524 42.468C37.7484 42.468 38.4084 43.092 38.4084 44.304V48ZM43.8774 43.5V40.776H45.3894C46.4574 40.776 46.9374 41.28 46.9374 42.144C46.9374 42.984 46.4574 43.5 45.3894 43.5H43.8774ZM48.3414 42.144C48.3414 40.788 47.3694 39.66 45.3894 39.66H42.5094V48H43.8774V44.616H45.3894C47.5614 44.616 48.3414 43.332 48.3414 42.144ZM50.6461 48H52.0141V41.388H50.6461V48ZM51.3421 40.512C51.8221 40.512 52.2061 40.128 52.2061 39.636C52.2061 39.144 51.8221 38.76 51.3421 38.76C50.8501 38.76 50.4661 39.144 50.4661 39.636C50.4661 40.128 50.8501 40.512 51.3421 40.512ZM58.2302 48H59.7782L57.6422 44.652L59.7782 41.388H58.3502L57.0062 43.632L55.5782 41.388H54.0302L56.1662 44.748L54.0302 48H55.4582L56.8022 45.756L58.2302 48ZM64.5824 42.432C65.6024 42.432 66.4064 43.08 66.4304 44.1H62.7704C62.9144 43.056 63.6584 42.432 64.5824 42.432ZM67.6784 46.032H66.2024C65.9504 46.548 65.4824 46.956 64.6424 46.956C63.6344 46.956 62.8544 46.296 62.7584 45.204H67.8104C67.8464 44.976 67.8584 44.76 67.8584 44.532C67.8584 42.588 66.5264 41.28 64.6424 41.28C62.6864 41.28 61.3424 42.612 61.3424 44.688C61.3424 46.764 62.7464 48.108 64.6424 48.108C66.2624 48.108 67.3064 47.184 67.6784 46.032ZM70.2047 48H71.5727V39.12H70.2047V48ZM78.5808 41.388H73.9968V42.504H77.0088L73.9968 46.884V48H78.5808V46.884H75.5808L78.5808 42.504V41.388ZM86.8264 48.012L88.3624 48L90.2224 41.688L91.9744 48H93.5224L95.9944 39.66H94.5304L92.7904 46.416L91.0504 39.66H89.5144L87.6424 46.452L85.9144 39.66H84.4624L86.8264 48.012ZM100.907 42.432C101.927 42.432 102.731 43.08 102.755 44.1H99.0947C99.2387 43.056 99.9827 42.432 100.907 42.432ZM104.003 46.032H102.527C102.275 46.548 101.807 46.956 100.967 46.956C99.9587 46.956 99.1787 46.296 99.0827 45.204H104.135C104.171 44.976 104.183 44.76 104.183 44.532C104.183 42.588 102.851 41.28 100.967 41.28C99.0107 41.28 97.6667 42.612 97.6667 44.688C97.6667 46.764 99.0707 48.108 100.967 48.108C102.587 48.108 103.631 47.184 104.003 46.032ZM107.897 42.372V39.12H106.529V48H107.897V47.04C108.329 47.616 109.109 48.108 110.201 48.108C111.941 48.108 113.309 46.704 113.309 44.664C113.309 42.624 111.953 41.28 110.201 41.28C109.157 41.28 108.329 41.772 107.897 42.372ZM111.917 44.664C111.917 46.092 110.933 46.92 109.901 46.92C108.881 46.92 107.897 46.116 107.897 44.688C107.897 43.272 108.881 42.468 109.901 42.468C110.933 42.468 111.917 43.236 111.917 44.664ZM125.407 45.636C125.407 42.588 120.991 43.764 120.991 41.88C120.991 41.076 121.603 40.692 122.395 40.716C123.259 40.74 123.751 41.256 123.799 41.82H125.311C125.191 40.392 124.063 39.552 122.467 39.552C120.763 39.552 119.599 40.464 119.599 41.928C119.599 45 124.027 43.692 124.027 45.708C124.027 46.416 123.487 46.932 122.527 46.932C121.579 46.932 121.099 46.38 121.039 45.696H119.575C119.575 47.172 120.859 48.084 122.527 48.084C124.387 48.084 125.407 46.884 125.407 45.636ZM134.321 44.688C134.321 42.612 132.833 41.28 130.949 41.28C129.065 41.28 127.577 42.612 127.577 44.688C127.577 46.764 129.005 48.108 130.889 48.108C132.785 48.108 134.321 46.764 134.321 44.688ZM128.969 44.688C128.969 43.188 129.893 42.468 130.925 42.468C131.945 42.468 132.917 43.188 132.917 44.688C132.917 46.188 131.909 46.92 130.889 46.92C129.857 46.92 128.969 46.188 128.969 44.688ZM136.673 48H138.041V39.12H136.673V48ZM146.826 41.388H145.458V45.072C145.458 46.284 144.798 46.908 143.79 46.908C142.794 46.908 142.134 46.284 142.134 45.072V41.388H140.778V45.276C140.778 47.124 141.954 48.096 143.502 48.096C144.282 48.096 145.026 47.772 145.458 47.208V48H146.826V41.388ZM149.846 46.164C149.846 47.508 150.578 48 151.754 48H152.834V46.86H151.994C151.418 46.86 151.226 46.656 151.226 46.164V42.504H152.834V41.388H151.226V39.744H149.846V41.388H149.066V42.504H149.846V46.164ZM155.095 48H156.463V41.388H155.095V48ZM155.791 40.512C156.271 40.512 156.655 40.128 156.655 39.636C156.655 39.144 156.271 38.76 155.791 38.76C155.299 38.76 154.915 39.144 154.915 39.636C154.915 40.128 155.299 40.512 155.791 40.512ZM165.559 44.688C165.559 42.612 164.071 41.28 162.187 41.28C160.303 41.28 158.815 42.612 158.815 44.688C158.815 46.764 160.243 48.108 162.127 48.108C164.023 48.108 165.559 46.764 165.559 44.688ZM160.207 44.688C160.207 43.188 161.131 42.468 162.163 42.468C163.183 42.468 164.155 43.188 164.155 44.688C164.155 46.188 163.147 46.92 162.127 46.92C161.095 46.92 160.207 46.188 160.207 44.688ZM172.604 48H173.96V44.1C173.96 42.252 172.796 41.28 171.248 41.28C170.456 41.28 169.724 41.604 169.28 42.144V41.388H167.912V48H169.28V44.304C169.28 43.092 169.94 42.468 170.948 42.468C171.944 42.468 172.604 43.092 172.604 44.304V48ZM181.637 46.152C181.565 43.764 177.833 44.508 177.833 43.176C177.833 42.732 178.217 42.432 178.949 42.432C179.693 42.432 180.137 42.828 180.185 43.404H181.553C181.481 42.084 180.497 41.28 178.997 41.28C177.437 41.28 176.453 42.132 176.453 43.188C176.453 45.612 180.293 44.868 180.293 46.164C180.293 46.62 179.873 46.956 179.081 46.956C178.325 46.956 177.809 46.512 177.761 45.972H176.345C176.405 47.172 177.521 48.108 179.105 48.108C180.665 48.108 181.637 47.268 181.637 46.152Z" fill="#A7A7A7"/>
            <path d="M268.937 45.612C268.937 46.416 268.373 46.884 267.449 46.884H265.601V44.28H267.401C268.313 44.28 268.937 44.784 268.937 45.612ZM268.721 41.976C268.721 42.744 268.181 43.164 267.293 43.164H265.601V40.776H267.293C268.181 40.776 268.721 41.22 268.721 41.976ZM270.305 45.756C270.305 44.76 269.585 43.872 268.697 43.716C269.501 43.428 270.113 42.816 270.113 41.808C270.113 40.632 269.177 39.66 267.413 39.66H264.233V48H267.569C269.273 48 270.305 47.028 270.305 45.756ZM275.576 42.432C276.596 42.432 277.4 43.08 277.424 44.1H273.764C273.908 43.056 274.652 42.432 275.576 42.432ZM278.672 46.032H277.196C276.944 46.548 276.476 46.956 275.636 46.956C274.628 46.956 273.848 46.296 273.752 45.204H278.804C278.84 44.976 278.852 44.76 278.852 44.532C278.852 42.588 277.52 41.28 275.636 41.28C273.68 41.28 272.336 42.612 272.336 44.688C272.336 46.764 273.74 48.108 275.636 48.108C277.256 48.108 278.3 47.184 278.672 46.032ZM285.89 48H287.246V44.1C287.246 42.252 286.082 41.28 284.534 41.28C283.742 41.28 283.01 41.604 282.566 42.144V41.388H281.198V48H282.566V44.304C282.566 43.092 283.226 42.468 284.234 42.468C285.23 42.468 285.89 43.092 285.89 44.304V48ZM289.535 44.664C289.535 46.704 290.915 48.108 292.655 48.108C293.735 48.108 294.527 47.568 294.947 47.004V48.108C294.947 49.428 294.155 50.076 293.099 50.076C292.151 50.076 291.419 49.608 291.215 48.924H289.859C290.027 50.388 291.335 51.264 293.099 51.264C295.163 51.264 296.327 49.908 296.327 48.108V41.388H294.947V42.348C294.539 41.784 293.735 41.28 292.655 41.28C290.915 41.28 289.535 42.624 289.535 44.664ZM294.947 44.688C294.947 46.116 293.975 46.92 292.943 46.92C291.923 46.92 290.939 46.092 290.939 44.664C290.939 43.236 291.923 42.468 292.943 42.468C293.975 42.468 294.947 43.272 294.947 44.688ZM298.668 44.664C298.668 46.704 300.048 48.108 301.764 48.108C302.868 48.108 303.66 47.58 304.08 47.016V48H305.46V41.388H304.08V42.348C303.672 41.808 302.904 41.28 301.788 41.28C300.048 41.28 298.668 42.624 298.668 44.664ZM304.08 44.688C304.08 46.116 303.108 46.92 302.076 46.92C301.056 46.92 300.072 46.092 300.072 44.664C300.072 43.236 301.056 42.468 302.076 42.468C303.108 42.468 304.08 43.272 304.08 44.688ZM308.257 48H309.625V39.12H308.257V48ZM318.409 41.388H317.041V45.072C317.041 46.284 316.381 46.908 315.373 46.908C314.377 46.908 313.717 46.284 313.717 45.072V41.388H312.361V45.276C312.361 47.124 313.537 48.096 315.085 48.096C315.865 48.096 316.609 47.772 317.041 47.208V48H318.409V41.388ZM322.582 44.52C322.582 43.116 323.206 42.696 324.214 42.696H324.562V41.28C323.626 41.28 322.966 41.688 322.582 42.348V41.388H321.214V48H322.582V44.52ZM332.807 41.388H331.439V45.072C331.439 46.284 330.779 46.908 329.771 46.908C328.775 46.908 328.115 46.284 328.115 45.072V41.388H326.759V45.276C326.759 47.124 327.935 48.096 329.483 48.096C330.263 48.096 331.007 47.772 331.439 47.208V48H332.807V41.388Z" fill="#A7A7A7"/>
            <rect y="78" width="2" height="696" transform="rotate(-90 0 78)" fill="#EBEAED"/>
            <defs>
            <clipPath id="clip0_22_160">
            <rect width="16" height="12" fill="white" transform="translate(539 39)"/>
            </clipPath>
            </defs>
            </svg>
